<?xml version="1.0" encoding="UTF-8"?>
<!-- Uploaded to: SVG Repo, www.svgrepo.com, Generator: SVG Repo Mixer Tools -->
<svg width="800px" height="800px" fill="#000000" version="1.1" viewBox="0 0 32 32" xmlns="http://www.w3.org/2000/svg">
 <title>file</title>
 <path d="m26.731 9.902c-5e-3 -0.035-0.011-0.066-0.019-0.095l1e-3 5e-3c-0.031-0.134-0.094-0.249-0.182-0.342l-8-8c-0.092-0.087-0.207-0.15-0.335-0.181l-5e-3 -1e-3c-0.027-8e-3 -0.059-0.014-0.092-0.019h-3e-3c-0.026-7e-3 -0.059-0.014-0.092-0.019h-4e-3 -12c-0.414 0-0.75 0.336-0.75 0.75v28c0 0.414 0.336 0.75 0.75 0.75h20c0.414-0 0.75-0.336 0.75-0.75v-20c-5e-3 -0.038-0.012-0.071-0.02-0.103l1e-3 5e-3zm-2.542-0.652h-5.439v-5.439zm-17.439 20v-26.5h10.5v7.25c0 0.414 0.336 0.75 0.75 0.75h7.25v18.5z"/>
 <metadata>
 </metadata>
 <text transform="scale(.04)" fill="black" font-family="sans-serif" font-size="40px" style="line-height:1.25;shape-inside:url(#rect2569);white-space:pre" xml:space="preserve"/>
 <text x="8.1196404" y="23.816225" fill="#000000" font-family="sans-serif" font-size="14.282px" stroke-width=".074387" style="line-height:1.25" xml:space="preserve"><tspan x="8.1196404" y="23.816225" font-family="Calibri" font-size="14.282px" font-weight="bold" stroke-width=".074387">PY</tspan></text>
</svg>
