<!-- Uploaded to: SVG Repo, www.svgrepo.com, Generator: SVG Repo Mixer Tools -->
<svg width="800px" height="800px" fill="#000000" version="1.1" viewBox="0 0 32 32" xmlns="http://www.w3.org/2000/svg">
 <title>file</title>
 <path d="m26.731 9.902c-5e-3 -0.035-0.011-0.066-0.019-0.095l1e-3 5e-3c-0.031-0.134-0.094-0.249-0.182-0.342l-8-8c-0.092-0.087-0.207-0.15-0.335-0.181l-5e-3 -1e-3c-0.027-8e-3 -0.059-0.014-0.092-0.019h-3e-3c-0.026-7e-3 -0.059-0.014-0.092-0.019h-12.004c-0.414 0-0.75 0.336-0.75 0.75v28c0 0.414 0.336 0.75 0.75 0.75h20c0.414-0 0.75-0.336 0.75-0.75v-20c-5e-3 -0.038-0.012-0.071-0.02-0.103l1e-3 5e-3zm-2.542-0.652h-5.439v-5.439zm-17.439 20v-26.5h10.5v7.25c0 0.414 0.336 0.75 0.75 0.75h7.25v18.5z"/>
 <text transform="scale(.04)" fill="black" font-family="sans-serif" font-size="40px" style="line-height:1.25;shape-inside:url(#rect2569);white-space:pre" xml:space="preserve"/>
 <text x="10.406091" y="23.720957" fill="#000000" font-family="sans-serif" font-size="14.282px" stroke-width=".074387" style="line-height:1.25" xml:space="preserve"><tspan x="10.406091" y="23.720957" font-family="Calibri" font-size="14.282px" font-weight="bold" stroke-width=".074387"/></text>
 <g transform="matrix(.57747 0 0 .57747 6.5266 9.6533)" fill="#000" stroke="#000" stroke-width=".66753">
  <g fill="#000" stroke="#000" stroke-width=".66753">
   <path d="m29.7 16c0-1.9-2.2-3.5-5.7-4.5 0.9-3.5 0.6-6.2-1-7.2-0.4-0.2-0.8-0.3-1.3-0.3-1.5 0-3.5 1.1-5.5 3-2-1.9-3.9-3-5.5-3-0.5 0-0.9 0.1-1.3 0.3-1.5 1-1.8 3.7-1 7.2-3.4 1-5.7 2.7-5.7 4.5 0 1.9 2.2 3.5 5.7 4.5-0.8 3.5-0.5 6.3 1.1 7.2 0.4 0.2 0.8 0.3 1.3 0.3 1.5 0 3.5-1.1 5.5-3 2 1.9 3.9 3 5.5 3 0.5 0 0.9-0.1 1.3-0.3 1.6-0.9 1.9-3.7 1.1-7.2 3.3-1 5.5-2.7 5.5-4.5zm-8-10.7c0.3 0 0.5 0 0.6 0.2 0.8 0.4 1.1 2 0.8 4.1-0.1 0.5-0.2 1.1-0.3 1.6-1.1-0.3-2.2-0.4-3.5-0.6-0.7-1-1.4-1.9-2.2-2.7 1.8-1.7 3.5-2.6 4.6-2.6zm-1.8 12.8c-0.4 0.7-0.8 1.4-1.3 2-0.8 0.1-1.6 0.1-2.4 0.1s-1.6 0-2.4-0.1c-0.4-0.6-0.8-1.3-1.3-2-0.4-0.7-0.8-1.4-1.1-2.1 0.3-0.7 0.7-1.4 1.1-2.1s0.9-1.4 1.3-2.1c0.8-0.1 1.6-0.1 2.4-0.1s1.6 0 2.4 0.1c0.4 0.6 0.9 1.3 1.3 2.1 0.4 0.7 0.8 1.4 1.1 2.1-0.3 0.7-0.7 1.4-1.1 2.1zm1.8-0.6c0.3 0.7 0.5 1.4 0.7 2-0.7 0.2-1.4 0.3-2.1 0.4 0.2-0.4 0.5-0.8 0.7-1.2 0.3-0.3 0.5-0.8 0.7-1.2zm-5.5 5.7c-0.5-0.5-1-1.1-1.4-1.7h1.4 1.4c-0.4 0.6-0.9 1.2-1.4 1.7zm-4.1-3.2c-0.7-0.1-1.4-0.2-2.1-0.4 0.2-0.7 0.5-1.4 0.7-2 0.2 0.4 0.4 0.8 0.7 1.2s0.5 0.8 0.7 1.2zm-1.4-5.5c-0.3-0.7-0.5-1.4-0.8-2.1 0.7-0.2 1.4-0.3 2.2-0.4-0.3 0.4-0.5 0.8-0.8 1.2-0.1 0.5-0.3 0.9-0.6 1.3zm5.5-5.7c0.5 0.5 0.9 1.1 1.4 1.6h-1.4-1.4c0.5-0.5 1-1.1 1.4-1.6zm4.8 4.4c-0.3-0.4-0.5-0.8-0.8-1.2 0.8 0.1 1.5 0.2 2.2 0.4-0.2 0.7-0.5 1.4-0.8 2.1-0.1-0.4-0.3-0.8-0.6-1.3zm-11.6-3.7c-0.3-2.1 0-3.6 0.8-4.1 0.2-0.1 0.4-0.2 0.6-0.2 1.1 0 2.7 0.9 4.5 2.6-0.7 0.8-1.5 1.7-2.2 2.7-1.2 0.1-2.4 0.3-3.5 0.6-0.1-0.5-0.2-1.1-0.2-1.6zm-2.2 9.2c-1.9-0.8-3.2-1.9-3.2-2.7 0-0.9 1.2-1.9 3.1-2.7 0.5-0.2 1-0.4 1.6-0.5 0.3 1.1 0.7 2.2 1.3 3.3-0.5 1.1-0.9 2.2-1.2 3.2-0.6-0.2-1.1-0.4-1.6-0.6zm2.9 7.9c-0.8-0.4-1.1-2-0.8-4.1 0.1-0.5 0.2-1.1 0.3-1.7 1.1 0.2 2.2 0.4 3.4 0.5 0.7 1 1.5 1.9 2.2 2.7-1.8 1.7-3.4 2.6-4.5 2.6-0.2 0.1-0.4 0-0.6 0zm13-4.1c0.3 2.1 0 3.6-0.8 4.1-0.2 0.1-0.4 0.2-0.6 0.2-1.1 0-2.7-0.9-4.5-2.6 0.8-0.8 1.5-1.7 2.2-2.7 1.2-0.1 2.4-0.3 3.4-0.5 0.1 0.4 0.2 0.9 0.3 1.5zm2.2-3.8c-0.5 0.2-1 0.4-1.6 0.5-0.3-1-0.7-2.1-1.2-3.2 0.5-1.1 0.9-2.2 1.3-3.3 0.5 0.2 1.1 0.3 1.6 0.5 1.9 0.8 3.1 1.8 3.1 2.7-0.1 0.9-1.3 2-3.2 2.8z"/>
   <path d="m16.3 18.5c1.4 0 2.5-1.1 2.5-2.5s-1.1-2.5-2.5-2.5-2.5 1.1-2.5 2.5 1.1 2.5 2.5 2.5z"/>
  </g>
 </g>
</svg>
